<svg preserveAspectRatio="none" overflow="visible" style="display: block;" width="19.9954" height="19.9954" viewBox="0 0 19.9954 19.9954" fill="none" xmlns="http://www.w3.org/2000/svg">
<g id="Icon" clip-path="url(#clip0_0_349)">
<path id="Vector" opacity="0.25" d="M9.9977 19.9954C15.5193 19.9954 19.9954 15.5193 19.9954 9.9977C19.9954 4.47612 15.5193 0 9.9977 0C4.47612 0 0 4.47612 0 9.9977C0 15.5193 4.47612 19.9954 9.9977 19.9954Z" fill="#42A645"/>
<path id="Vector_2" opacity="0.35" d="M9.99741 16.9968C13.8625 16.9968 16.9958 13.8635 16.9958 9.99839C16.9958 6.13329 13.8625 3 9.99741 3C6.13231 3 2.99902 6.13329 2.99902 9.99839C2.99902 13.8635 6.13231 16.9968 9.99741 16.9968Z" fill="#42A645"/>
<path id="Vector_3" d="M9.99736 12.9967C11.6538 12.9967 12.9967 11.6538 12.9967 9.99736C12.9967 8.34088 11.6538 6.99805 9.99736 6.99805C8.34088 6.99805 6.99805 8.34088 6.99805 9.99736C6.99805 11.6538 8.34088 12.9967 9.99736 12.9967Z" fill="#1E8C3E"/>
</g>
<defs>
<clipPath id="clip0_0_349">
<rect width="19.9954" height="19.9954" fill="white"/>
</clipPath>
</defs>
</svg>
